<?xml version="1.0" encoding="utf-8"?>
<!-- Generator: Adobe Illustrator 22.1.0, SVG Export Plug-In . SVG Version: 6.00 Build 0)  -->
<svg version="1.1" id="Capa_1" xmlns="http://www.w3.org/2000/svg" xmlns:xlink="http://www.w3.org/1999/xlink" x="0px" y="0px"
	 viewBox="0 0 189 289.6" style="enable-background:new 0 0 189 289.6;" xml:space="preserve">
<style type="text/css">
	.st0{fill-rule:evenodd;clip-rule:evenodd;fill:#89CFBA;}
	.st1{fill-rule:evenodd;clip-rule:evenodd;fill:#000002;}
	.st2{fill-rule:evenodd;clip-rule:evenodd;fill:#ED1C24;}
	.st3{fill-rule:evenodd;clip-rule:evenodd;fill:#FFFFFF;}
</style>
<g>
	<path class="st0" d="M25.4,80.4l138.2-0.2c10.3,0.3,18,8,18.3,18.3v115.9c0,1.5,0,1.8-0.7,3c-6.8,11.6-14.8,22.6-24.1,32.2
		c-11.2,11.3-24.1,20.5-38.6,27.2c-15.8,6.6-30.2,7.3-46.3,1.5c-4.9-2-9.5-4.3-14.1-6.9c-9.6-5.8-18.3-12.3-26.2-20.2
		c-9.7-9.9-18-21.4-24-33.9c-0.6-1.2-0.7-1.7-0.7-3V98.8C7.4,88.5,15.2,80.7,25.4,80.4L25.4,80.4z M111.1,159.7l1.1,89.6l-0.2,1.3
		l-0.3,1l-0.4,1l-0.4,0.9l-0.5,0.9l-0.6,0.8l-0.6,0.8l-0.7,0.7l-0.7,0.7l-0.8,0.6l-0.8,0.6l-0.8,0.5l-0.9,0.5l-0.9,0.5l-0.9,0.4
		l-0.9,0.4l-0.8,0.3l-0.7,0.3l-0.7,0.2l-0.7,0.2l-0.7,0.2l-0.8,0.2l-0.8,0.1l-0.8,0.1l-0.8,0l-0.8,0l-0.8-0.1l-0.8-0.1l-0.8-0.2
		L91,262l-0.8-0.2l-0.8-0.3l-1-0.3l-1-0.4l-0.9-0.4l-0.9-0.5l-0.9-0.6l-0.9-0.6L83,258l-0.8-0.7l-0.7-0.8l-0.7-0.8l-0.6-0.9l-0.6-1
		l-0.5-1l-0.4-1.1l-0.3-1.1l-0.3-1.5l2.7-89.6C57.3,165.8,40,187.2,40,212.6c0,30.5,24.8,55.2,55.4,55.2c30.6,0,55.4-24.7,55.4-55.2
		C150.8,187.6,134,166.5,111.1,159.7z"/>
	<path class="st1" d="M25.3,73.3l59.3-0.1c0-7.3,0-14.5,0-21.8l0-0.1c-0.1,0-0.1,0-0.2,0c-15.9-1.6-29.3-5.2-37.1-11.2
		c-2.2-1.7-2.2-2-2.2-4.7v-19c0-2.7,0.2-3,2.3-4.8C57.1,3.5,75.3,0,96.1,0c21.6,0,40.3,3.9,49.6,12.5c1.7,1.5,1.7,1.8,1.7,4v20.3
		c0,2.5-0.2,2.9-2.3,4.5c-7.5,5.7-20.4,8-35.8,9.8l0,22.1l54.5-0.1c13.9,0,25.3,11.4,25.3,25.3c0,36.7,0,72.2,0,108.7
		c0,11-0.5,12.5-6.8,22.1c-11.2,17.2-24.4,31.4-39.5,41.8c-34.1,23.7-60.5,24.9-94.6,2.6C29.5,261.4,14,244.8,3.1,223.8
		c-3.2-6.2-3.1-8.9-3.1-15.9V98.7C0,84.7,11.4,73.4,25.3,73.3L25.3,73.3z M25.4,80.4C15.2,80.7,7.4,88.5,7.1,98.8v108.2
		c0,7.2,0.4,10.3,4,16.8c5.6,10,12.7,19.4,20.7,27.6c8,7.9,16.6,14.4,26.2,20.2c4.6,2.6,9.2,4.9,14.1,6.9
		c16.2,5.9,30.5,5.2,46.3-1.5c14.5-6.7,27.4-15.9,38.6-27.2c6.2-6.5,11.9-13.5,17-21c0.7-1.1,1.4-2.1,2.1-3.2
		c5.4-8.3,5.7-9.6,5.7-19.1V98.6c-0.3-10.3-8-18.1-18.3-18.3L25.4,80.4z"/>
	<path class="st2" d="M114.6,7.9c7.3,1,16.3,3.3,23.3,7.3c3.9,2.2,4,2.5,4,6.8v10.5c0,3.9,0.3,4.2-3.4,5.9
		c-9.8,4.7-24.2,5.6-34.4,6.7l0,27.6l-14.2,0V52.2l0.3-7.1c-6.9-0.5-11.3-1.1-18-2.5C67,41.5,60.4,40.1,55,37.7
		c-4.1-1.9-4.1-2.1-4.1-6.4V20.9c0-3.9,0.5-4.1,4-6.1c10.3-5.9,25.2-7.6,35.9-8C98.8,6.7,106.7,6.9,114.6,7.9z"/>
	<path class="st1" d="M95.4,150.4c34.5,0,62.5,27.9,62.5,62.3c0,34.4-28,62.3-62.5,62.3c-34.5,0-62.5-27.9-62.5-62.3
		C32.9,178.3,60.9,150.4,95.4,150.4L95.4,150.4z M111.1,159.7l1.1,89.6c-1.9,8.8-9.6,13.1-17.3,13c-7.6-0.1-15.2-4.6-16.7-13.2
		l2.7-89.6C57.3,165.8,40,187.2,40,212.6c0,30.5,24.8,55.2,55.4,55.2c30.6,0,55.4-24.7,55.4-55.2C150.8,187.6,134,166.5,111.1,159.7
		z"/>
	<path class="st2" d="M85.8,158.2h20.4l1.1,90.7c-0.4,3.3-3.3,6-7.2,7.5c-3.6,1.4-5.4,1.6-9.1,0.4c-4.1-1.4-7.1-4-7.9-8.3
		L85.8,158.2z"/>
	<path class="st1" d="M82.9,206h25.5c2.7,0,4.8,1.8,4.8,4l0,0c0,2.2-2.2,4-4.8,4H82.9c-2.7,0-4.8-1.8-4.8-4l0,0
		C78.1,207.8,80.3,206,82.9,206z"/>
	<path class="st3" d="M82.9,208.3h25.5c1.4,0,2.5,0.7,2.5,1.7l0,0c0,0.9-1.1,1.7-2.5,1.7H82.9c-1.4,0-2.5-0.7-2.5-1.7l0,0
		C80.4,209,81.5,208.3,82.9,208.3z"/>
	<path class="st1" d="M89.1,53.8h15c2.1,0,3.8,1.5,3.8,3.4l0,0c0,1.9-1.7,3.4-3.8,3.4h-15c-2.1,0-3.8-1.5-3.8-3.4l0,0
		C85.3,55.4,87,53.8,89.1,53.8z"/>
	<path class="st3" d="M89.1,56.2h15c0.8,0,1.5,0.5,1.5,1.1l0,0c0,0.6-0.7,1.1-1.5,1.1h-15c-0.8,0-1.5-0.5-1.5-1.1l0,0
		C87.6,56.7,88.3,56.2,89.1,56.2z"/>
	<polygon class="st1" points="89,58.3 104.2,58.3 104.8,58.4 105.4,58.5 106,58.8 106.6,59.1 107.1,59.6 107.5,60.2 107.8,60.9 
		107.9,61.8 107.8,62.6 107.5,63.3 107.1,63.9 106.6,64.4 106,64.8 105.4,65 104.8,65.1 104.2,65.2 89,65.2 88.4,65.1 87.8,65 
		87.2,64.8 86.6,64.4 86.1,63.9 85.7,63.3 85.4,62.6 85.3,61.8 85.4,60.9 85.7,60.2 86.1,59.6 86.6,59.1 87.2,58.8 87.8,58.5 
		88.4,58.4 	"/>
	<path class="st3" d="M89.1,60.7h15c0.8,0,1.5,0.5,1.5,1.1l0,0c0,0.6-0.7,1.1-1.5,1.1h-15c-0.8,0-1.5-0.5-1.5-1.1l0,0
		C87.6,61.2,88.3,60.7,89.1,60.7z"/>
	<path class="st1" d="M81.9,215.2h27.1c2.8,0,5,1.8,5,4l0,0c0,2.2-2.3,4-5,4H81.9c-2.8,0-5-1.8-5-4l0,0
		C76.9,216.9,79.2,215.2,81.9,215.2z"/>
	<path class="st3" d="M81.9,217.5H109c1.5,0,2.7,0.7,2.7,1.7l0,0c0,0.9-1.2,1.7-2.7,1.7H81.9c-1.5,0-2.7-0.7-2.7-1.7l0,0
		C79.2,218.2,80.5,217.5,81.9,217.5z"/>
	<path class="st1" d="M125.1,40.3v-28c0-2.6,1.7-4.8,3.8-4.8l0,0c2.1,0,3.8,2.2,3.8,4.8v28c0,2.6-1.7,4.8-3.8,4.8l0,0
		C126.8,45.1,125.1,43,125.1,40.3z"/>
	<path class="st1" d="M67.7,40.3v-28c0-2.6-1.7-4.8-3.8-4.8l0,0c-2.1,0-3.8,2.2-3.8,4.8v28c0,2.6,1.7,4.8,3.8,4.8l0,0
		C65.9,45.1,67.7,43,67.7,40.3z"/>
	<path class="st1" d="M130.9,37.7V15c0-2.1,1.7-3.9,3.8-3.9l0,0c2.1,0,3.8,1.8,3.8,3.9v22.7c0,2.1-1.7,3.9-3.8,3.9l0,0
		C132.6,41.6,130.9,39.9,130.9,37.7z"/>
	<path class="st1" d="M61.9,37.7V15c0-2.1-1.7-3.9-3.8-3.9l0,0c-2.1,0-3.8,1.8-3.8,3.9v22.7c0,2.1,1.7,3.9,3.8,3.9l0,0
		C60.2,41.6,61.9,39.9,61.9,37.7z"/>
	<path class="st3" d="M127.2,38.2v-24c0-1.3,0.8-2.4,1.7-2.4l0,0c1,0,1.7,1.1,1.7,2.4v24c0,1.3-0.8,2.4-1.7,2.4l0,0
		C128,40.6,127.2,39.5,127.2,38.2z"/>
	<path class="st3" d="M65.6,38.2v-24c0-1.3-0.8-2.4-1.7-2.4l0,0c-1,0-1.7,1.1-1.7,2.4v24c0,1.3,0.8,2.4,1.7,2.4l0,0
		C64.8,40.6,65.6,39.5,65.6,38.2z"/>
	<path class="st3" d="M133.2,37.7V15c0-1.2,0.8-2.3,1.7-2.3l0,0c1,0,1.7,1,1.7,2.3v22.7c0,1.2-0.8,2.3-1.7,2.3l0,0
		C133.9,40,133.2,39,133.2,37.7z"/>
	<path class="st3" d="M59.6,37.7V15c0-1.2-0.8-2.3-1.7-2.3l0,0c-1,0-1.7,1-1.7,2.3v22.7c0,1.2,0.8,2.3,1.7,2.3l0,0
		C58.8,40,59.6,39,59.6,37.7z"/>
	<g>
		<path class="st1" d="M25.2,93.3h-3.1v-2c0-0.6,0-0.9-0.1-1.1C21.9,90,21.8,90,21.5,90c-0.3,0-0.4,0.1-0.5,0.3
			C21,90.4,21,90.8,21,91.3v5.3c0,0.6,0,0.9,0.1,1.1c0.1,0.2,0.2,0.3,0.5,0.3c0.2,0,0.4-0.1,0.4-0.3c0.1-0.2,0.1-0.6,0.1-1.2v-1.4
			h3.1v0.4c0,1.2-0.1,2-0.3,2.5c-0.2,0.5-0.6,0.9-1.1,1.3c-0.6,0.4-1.3,0.6-2.2,0.6c-0.9,0-1.6-0.2-2.2-0.5s-1-0.8-1.2-1.3
			c-0.2-0.6-0.3-1.4-0.3-2.5v-3.4c0-0.8,0-1.4,0.1-1.9c0.1-0.4,0.2-0.8,0.5-1.2c0.3-0.4,0.7-0.7,1.2-0.9c0.5-0.2,1.1-0.3,1.8-0.3
			c0.9,0,1.7,0.2,2.2,0.5c0.6,0.3,1,0.8,1.2,1.3c0.2,0.5,0.3,1.3,0.3,2.4V93.3L25.2,93.3z M33.3,95c0,1.2,0,2-0.1,2.5
			c-0.1,0.5-0.2,0.9-0.5,1.3c-0.3,0.4-0.7,0.7-1.2,0.9c-0.5,0.2-1.1,0.3-1.8,0.3c-0.6,0-1.2-0.1-1.7-0.3c-0.5-0.2-0.9-0.5-1.2-0.9
			c-0.3-0.4-0.5-0.8-0.5-1.3c-0.1-0.5-0.1-1.3-0.1-2.5v-2c0-1.2,0-2,0.1-2.5c0.1-0.5,0.2-0.9,0.5-1.3c0.3-0.4,0.7-0.7,1.2-0.9
			c0.5-0.2,1.1-0.3,1.8-0.3c0.6,0,1.2,0.1,1.7,0.3c0.5,0.2,0.9,0.5,1.2,0.9c0.3,0.4,0.5,0.8,0.5,1.3c0.1,0.5,0.1,1.3,0.1,2.5V95
			L33.3,95z M30.2,91.2c0-0.5,0-0.9-0.1-1C30,90,29.9,90,29.7,90c-0.2,0-0.3,0.1-0.4,0.2c-0.1,0.1-0.1,0.5-0.1,1.1v5.4
			c0,0.7,0,1.1,0.1,1.2c0.1,0.2,0.2,0.2,0.4,0.2c0.2,0,0.3-0.1,0.4-0.3c0.1-0.2,0.1-0.6,0.1-1.3V91.2L30.2,91.2z M37.5,88.2v9.2h1.9
			v2.3h-4.9V88.2H37.5L37.5,88.2z M40.1,88.2h5.1v2.3h-2.1v2.2h1.9v2.2h-1.9v2.5h2.3v2.3h-5.3V88.2L40.1,88.2z M53.4,92.5h-3.1v-1
			c0-0.7,0-1.1-0.1-1.2C50.2,90,50,90,49.8,90c-0.2,0-0.3,0.1-0.4,0.2c-0.1,0.1-0.1,0.5-0.1,1.1v5.5c0,0.5,0,0.9,0.1,1
			c0.1,0.2,0.2,0.2,0.4,0.2c0.2,0,0.4-0.1,0.5-0.3c0.1-0.2,0.1-0.5,0.1-1.1v-1.4h-0.6v-1.7h3.6v6.2h-1.9l-0.3-0.8
			c-0.2,0.4-0.5,0.6-0.8,0.8c-0.3,0.2-0.7,0.3-1.1,0.3c-0.5,0-1-0.1-1.4-0.4c-0.5-0.2-0.8-0.5-1-0.9c-0.2-0.4-0.4-0.7-0.4-1.1
			c-0.1-0.4-0.1-1-0.1-1.8v-3.4c0-1.1,0.1-1.9,0.2-2.4c0.1-0.5,0.5-1,1-1.4c0.6-0.4,1.3-0.6,2.2-0.6c0.9,0,1.6,0.2,2.2,0.5
			c0.6,0.4,1,0.8,1.2,1.3c0.2,0.5,0.3,1.2,0.3,2.2V92.5L53.4,92.5z M57.6,88.2v11.5h-3.1V88.2H57.6L57.6,88.2z M65.9,95
			c0,1.2,0,2-0.1,2.5c-0.1,0.5-0.2,0.9-0.5,1.3c-0.3,0.4-0.7,0.7-1.2,0.9c-0.5,0.2-1.1,0.3-1.8,0.3c-0.6,0-1.2-0.1-1.7-0.3
			c-0.5-0.2-0.9-0.5-1.2-0.9c-0.3-0.4-0.5-0.8-0.5-1.3c-0.1-0.5-0.1-1.3-0.1-2.5v-2c0-1.2,0-2,0.1-2.5c0.1-0.5,0.2-0.9,0.5-1.3
			c0.3-0.4,0.7-0.7,1.2-0.9c0.5-0.2,1.1-0.3,1.8-0.3c0.6,0,1.2,0.1,1.7,0.3c0.5,0.2,0.9,0.5,1.2,0.9c0.3,0.4,0.5,0.8,0.5,1.3
			c0.1,0.5,0.1,1.3,0.1,2.5V95L65.9,95z M62.8,91.2c0-0.5,0-0.9-0.1-1C62.7,90,62.5,90,62.4,90c-0.2,0-0.3,0.1-0.4,0.2
			c-0.1,0.1-0.1,0.5-0.1,1.1v5.4c0,0.7,0,1.1,0.1,1.2C62,98,62.1,98,62.3,98c0.2,0,0.3-0.1,0.4-0.3c0.1-0.2,0.1-0.6,0.1-1.3V91.2
			L62.8,91.2z M69.7,88.2H72c1.5,0,2.5,0.1,3,0.2c0.5,0.1,0.9,0.3,1.2,0.7c0.3,0.3,0.4,0.6,0.5,1c0.1,0.4,0.1,1.1,0.1,2.2v4
			c0,1,0,1.7-0.2,2.1c-0.1,0.3-0.3,0.6-0.5,0.8c-0.2,0.2-0.6,0.3-0.9,0.4c-0.4,0.1-0.9,0.1-1.6,0.1h-3.9V88.2L69.7,88.2z M72.7,90.2
			v7.6c0.4,0,0.7-0.1,0.8-0.3c0.1-0.2,0.2-0.6,0.2-1.4v-4.5c0-0.5,0-0.9,0-1c0-0.1-0.1-0.3-0.2-0.3C73.3,90.2,73.1,90.2,72.7,90.2
			L72.7,90.2z M77.9,88.2h5.1v2.3H81v2.2h1.9v2.2H81v2.5h2.3v2.3h-5.3V88.2L77.9,88.2z M96.3,88.2v11.5h-2.7V92l-1.1,7.8h-1.9
			l-1.1-7.6v7.6h-2.7V88.2h4c0.1,0.7,0.2,1.5,0.4,2.4l0.4,2.9l0.7-5.4H96.3L96.3,88.2z M102.8,88.2l1.8,11.5h-3.1l-0.2-2.1h-1.1
			l-0.2,2.1h-3.2l1.6-11.5H102.8L102.8,88.2z M101.2,95.6c-0.2-1.3-0.3-2.9-0.5-4.8c-0.3,2.2-0.5,3.8-0.6,4.8H101.2L101.2,95.6z
			 M105.1,88.2h2.2c1.5,0,2.4,0.1,2.9,0.2c0.5,0.1,0.9,0.4,1.3,0.8c0.3,0.4,0.5,1.2,0.5,2.1c0,0.9-0.1,1.5-0.3,1.8
			c-0.2,0.3-0.7,0.5-1.4,0.6c0.6,0.1,1,0.3,1.2,0.6c0.2,0.2,0.3,0.5,0.4,0.7c0.1,0.2,0.1,0.8,0.1,1.7v3h-2.9v-3.8
			c0-0.6-0.1-1-0.2-1.1c-0.1-0.1-0.4-0.2-0.8-0.2v5.2h-3.1V88.2L105.1,88.2z M108.2,90.2v2.6c0.3,0,0.6,0,0.7-0.1
			c0.1-0.1,0.2-0.4,0.2-0.9v-0.6c0-0.4-0.1-0.6-0.2-0.7C108.8,90.3,108.5,90.2,108.2,90.2L108.2,90.2z M119.3,88.2v2.3h-1.8v9.2
			h-3.1v-9.2h-1.8v-2.3H119.3L119.3,88.2z M123.1,88.2v11.5H120V88.2H123.1L123.1,88.2z M127.4,88.2v9.2h1.9v2.3h-4.9V88.2H127.4
			L127.4,88.2z M133.1,88.2v9.2h1.9v2.3H130V88.2H133.1L133.1,88.2z M135.7,88.2h5.1v2.3h-2.1v2.2h1.9v2.2h-1.9v2.5h2.3v2.3h-5.3
			V88.2L135.7,88.2z M141.9,88.2h2.2c1.5,0,2.4,0.1,2.9,0.2c0.5,0.1,0.9,0.4,1.3,0.8c0.3,0.4,0.5,1.2,0.5,2.1c0,0.9-0.1,1.5-0.3,1.8
			c-0.2,0.3-0.7,0.5-1.4,0.6c0.6,0.1,1,0.3,1.2,0.6c0.2,0.2,0.3,0.5,0.4,0.7c0.1,0.2,0.1,0.8,0.1,1.7v3h-2.9v-3.8
			c0-0.6-0.1-1-0.2-1.1c-0.1-0.1-0.4-0.2-0.8-0.2v5.2h-3.1V88.2L141.9,88.2z M145,90.2v2.6c0.3,0,0.6,0,0.7-0.1
			c0.1-0.1,0.2-0.4,0.2-0.9v-0.6c0-0.4-0.1-0.6-0.2-0.7C145.6,90.3,145.4,90.2,145,90.2L145,90.2z M157,95c0,1.2,0,2-0.1,2.5
			c-0.1,0.5-0.2,0.9-0.5,1.3c-0.3,0.4-0.7,0.7-1.2,0.9c-0.5,0.2-1.1,0.3-1.8,0.3c-0.6,0-1.2-0.1-1.7-0.3c-0.5-0.2-0.9-0.5-1.2-0.9
			c-0.3-0.4-0.5-0.8-0.5-1.3c-0.1-0.5-0.1-1.3-0.1-2.5v-2c0-1.2,0-2,0.1-2.5c0.1-0.5,0.2-0.9,0.5-1.3c0.3-0.4,0.7-0.7,1.2-0.9
			c0.5-0.2,1.1-0.3,1.8-0.3c0.6,0,1.2,0.1,1.7,0.3c0.5,0.2,0.9,0.5,1.2,0.9c0.3,0.4,0.5,0.8,0.5,1.3C157,91,157,91.8,157,93V95
			L157,95z M153.9,91.2c0-0.5,0-0.9-0.1-1c-0.1-0.1-0.2-0.2-0.4-0.2c-0.2,0-0.3,0.1-0.4,0.2c-0.1,0.1-0.1,0.5-0.1,1.1v5.4
			c0,0.7,0,1.1,0.1,1.2c0.1,0.2,0.2,0.2,0.4,0.2c0.2,0,0.3-0.1,0.4-0.3c0.1-0.2,0.1-0.6,0.1-1.3V91.2L153.9,91.2z M164.7,91.7h-2.9
			v-0.9c0-0.4,0-0.7-0.1-0.8c-0.1-0.1-0.2-0.2-0.4-0.2c-0.2,0-0.3,0.1-0.4,0.2c-0.1,0.1-0.1,0.4-0.1,0.7c0,0.4,0.1,0.7,0.2,0.9
			c0.1,0.2,0.4,0.4,0.9,0.7c1.4,0.8,2.2,1.4,2.6,1.9c0.4,0.5,0.5,1.3,0.5,2.4c0,0.8-0.1,1.4-0.3,1.8c-0.2,0.4-0.6,0.7-1.1,1
			c-0.6,0.3-1.2,0.4-2,0.4c-0.8,0-1.5-0.2-2.1-0.5c-0.6-0.3-1-0.7-1.1-1.2c-0.2-0.5-0.3-1.1-0.3-2v-0.8h2.9V97c0,0.4,0,0.7,0.1,0.8
			c0.1,0.1,0.2,0.2,0.4,0.2c0.2,0,0.4-0.1,0.5-0.2c0.1-0.2,0.1-0.4,0.1-0.7c0-0.7-0.1-1.1-0.3-1.3c-0.2-0.2-0.7-0.6-1.4-1
			c-0.8-0.5-1.3-0.9-1.5-1.1c-0.2-0.2-0.5-0.5-0.6-0.9c-0.2-0.4-0.2-0.9-0.2-1.5c0-0.9,0.1-1.5,0.3-1.9c0.2-0.4,0.6-0.7,1.1-1
			c0.5-0.2,1.1-0.3,1.9-0.3c0.8,0,1.5,0.1,2,0.4c0.6,0.3,0.9,0.6,1.1,0.9c0.2,0.4,0.3,1,0.3,1.9V91.7L164.7,91.7z M175.1,88.2
			l-2.2,7.3v4.2H170v-4.2l-2.2-7.3h2.8c0.4,2.2,0.7,3.7,0.7,4.5c0.2-1.2,0.5-2.7,0.9-4.5H175.1L175.1,88.2z M23.6,108.9h-3.1v-2
			c0-0.6,0-0.9-0.1-1.1c-0.1-0.1-0.2-0.2-0.4-0.2c-0.3,0-0.4,0.1-0.5,0.3c-0.1,0.2-0.1,0.6-0.1,1.1v5.3c0,0.6,0,0.9,0.1,1.1
			c0.1,0.2,0.2,0.3,0.5,0.3c0.2,0,0.4-0.1,0.4-0.3c0.1-0.2,0.1-0.6,0.1-1.2v-1.4h3.1v0.4c0,1.2-0.1,2-0.3,2.5
			c-0.2,0.5-0.6,0.9-1.1,1.3c-0.6,0.4-1.3,0.6-2.2,0.6c-0.9,0-1.6-0.2-2.2-0.5c-0.6-0.3-1-0.8-1.2-1.3c-0.2-0.6-0.3-1.4-0.3-2.5
			v-3.4c0-0.8,0-1.4,0.1-1.9c0.1-0.4,0.2-0.8,0.5-1.2c0.3-0.4,0.7-0.7,1.2-0.9c0.5-0.2,1.1-0.3,1.8-0.3c0.9,0,1.7,0.2,2.2,0.5
			c0.6,0.3,1,0.8,1.2,1.3c0.2,0.5,0.3,1.3,0.3,2.4V108.9L23.6,108.9z M31.7,110.6c0,1.2,0,2-0.1,2.5c-0.1,0.5-0.2,0.9-0.5,1.3
			c-0.3,0.4-0.7,0.7-1.2,0.9c-0.5,0.2-1.1,0.3-1.8,0.3c-0.6,0-1.2-0.1-1.7-0.3c-0.5-0.2-0.9-0.5-1.2-0.9c-0.3-0.4-0.5-0.8-0.5-1.3
			c-0.1-0.5-0.1-1.3-0.1-2.5v-2c0-1.2,0-2,0.1-2.5c0.1-0.5,0.2-0.9,0.5-1.3c0.3-0.4,0.7-0.7,1.2-0.9c0.5-0.2,1.1-0.3,1.8-0.3
			c0.6,0,1.2,0.1,1.7,0.3c0.5,0.2,0.9,0.5,1.2,0.9c0.3,0.4,0.5,0.8,0.5,1.3c0.1,0.5,0.1,1.3,0.1,2.5V110.6L31.7,110.6z M28.6,106.8
			c0-0.5,0-0.9-0.1-1c-0.1-0.1-0.2-0.2-0.4-0.2c-0.2,0-0.3,0.1-0.4,0.2c-0.1,0.1-0.1,0.5-0.1,1.1v5.4c0,0.7,0,1.1,0.1,1.2
			c0.1,0.2,0.2,0.2,0.4,0.2c0.2,0,0.3-0.1,0.4-0.3c0.1-0.2,0.1-0.6,0.1-1.3V106.8L28.6,106.8z M32.9,103.9H35c1.4,0,2.4,0.1,2.9,0.2
			c0.5,0.1,0.9,0.4,1.3,0.8c0.3,0.4,0.5,1.2,0.5,2.1c0,0.9-0.1,1.5-0.3,1.8c-0.2,0.3-0.7,0.5-1.4,0.6c0.6,0.1,1,0.3,1.2,0.6
			c0.2,0.2,0.3,0.5,0.4,0.7c0.1,0.2,0.1,0.8,0.1,1.7v3h-2.9v-3.8c0-0.6-0.1-1-0.2-1.1c-0.1-0.1-0.4-0.2-0.8-0.2v5.2h-3.1V103.9
			L32.9,103.9z M35.9,105.8v2.6c0.3,0,0.6,0,0.7-0.1c0.1-0.1,0.2-0.4,0.2-0.9v-0.6c0-0.4-0.1-0.6-0.2-0.7
			C36.5,105.9,36.3,105.8,35.9,105.8L35.9,105.8z M40.9,103.9h2.2c1.5,0,2.4,0.1,2.9,0.2c0.5,0.1,0.9,0.4,1.3,0.8
			c0.3,0.4,0.5,1.2,0.5,2.1c0,0.9-0.1,1.5-0.3,1.8c-0.2,0.3-0.7,0.5-1.4,0.6c0.6,0.1,1,0.3,1.2,0.6c0.2,0.2,0.3,0.5,0.4,0.7
			c0.1,0.2,0.1,0.8,0.1,1.7v3h-2.9v-3.8c0-0.6-0.1-1-0.2-1.1c-0.1-0.1-0.4-0.2-0.8-0.2v5.2h-3.1V103.9L40.9,103.9z M44,105.8v2.6
			c0.3,0,0.6,0,0.7-0.1c0.1-0.1,0.2-0.4,0.2-0.9v-0.6c0-0.4-0.1-0.6-0.2-0.7C44.6,105.9,44.3,105.8,44,105.8L44,105.8z M49,103.9
			h5.1v2.3H52v2.2H54v2.2H52v2.5h2.3v2.3H49V103.9L49,103.9z M55.2,103.9h2.3c1.5,0,2.5,0.1,3,0.2c0.5,0.1,0.9,0.3,1.2,0.7
			c0.3,0.3,0.4,0.6,0.5,1c0.1,0.4,0.1,1.1,0.1,2.2v4c0,1,0,1.7-0.2,2.1c-0.1,0.3-0.3,0.6-0.5,0.8c-0.2,0.2-0.6,0.3-0.9,0.4
			c-0.4,0.1-0.9,0.1-1.6,0.1h-3.9V103.9L55.2,103.9z M58.3,105.8v7.6c0.4,0,0.7-0.1,0.8-0.3c0.1-0.2,0.2-0.6,0.2-1.4v-4.5
			c0-0.5,0-0.9,0-1c0-0.1-0.1-0.3-0.2-0.3C58.8,105.9,58.6,105.8,58.3,105.8L58.3,105.8z M70.5,110.6c0,1.2,0,2-0.1,2.5
			c-0.1,0.5-0.2,0.9-0.5,1.3c-0.3,0.4-0.7,0.7-1.2,0.9c-0.5,0.2-1.1,0.3-1.8,0.3c-0.6,0-1.2-0.1-1.7-0.3c-0.5-0.2-0.9-0.5-1.2-0.9
			c-0.3-0.4-0.5-0.8-0.5-1.3c-0.1-0.5-0.1-1.3-0.1-2.5v-2c0-1.2,0-2,0.1-2.5c0.1-0.5,0.2-0.9,0.5-1.3c0.3-0.4,0.7-0.7,1.2-0.9
			c0.5-0.2,1.1-0.3,1.8-0.3c0.6,0,1.2,0.1,1.7,0.3c0.5,0.2,0.9,0.5,1.2,0.9c0.3,0.4,0.5,0.8,0.5,1.3c0.1,0.5,0.1,1.3,0.1,2.5V110.6
			L70.5,110.6z M67.4,106.8c0-0.5,0-0.9-0.1-1c-0.1-0.1-0.2-0.2-0.4-0.2c-0.2,0-0.3,0.1-0.4,0.2c-0.1,0.1-0.1,0.5-0.1,1.1v5.4
			c0,0.7,0,1.1,0.1,1.2c0.1,0.2,0.2,0.2,0.4,0.2c0.2,0,0.3-0.1,0.4-0.3c0.1-0.2,0.1-0.6,0.1-1.3V106.8L67.4,106.8z M71.6,103.9h2.2
			c1.4,0,2.4,0.1,2.9,0.2c0.5,0.1,0.9,0.4,1.3,0.8c0.3,0.4,0.5,1.2,0.5,2.1c0,0.9-0.1,1.5-0.3,1.8c-0.2,0.3-0.7,0.5-1.4,0.6
			c0.6,0.1,1,0.3,1.2,0.6c0.2,0.2,0.3,0.5,0.4,0.7c0.1,0.2,0.1,0.8,0.1,1.7v3h-2.9v-3.8c0-0.6-0.1-1-0.2-1.1
			c-0.1-0.1-0.4-0.2-0.8-0.2v5.2h-3.1V103.9L71.6,103.9z M74.7,105.8v2.6c0.3,0,0.6,0,0.7-0.1c0.1-0.1,0.2-0.4,0.2-0.9v-0.6
			c0-0.4-0.1-0.6-0.2-0.7C75.3,105.9,75,105.8,74.7,105.8L74.7,105.8z M79.7,103.9h5.1v2.3h-2.1v2.2h1.9v2.2h-1.9v2.5H85v2.3h-5.3
			V103.9L79.7,103.9z M92.4,107.4h-2.9v-0.9c0-0.4,0-0.7-0.1-0.8c-0.1-0.1-0.2-0.2-0.4-0.2c-0.2,0-0.3,0.1-0.4,0.2
			c-0.1,0.1-0.1,0.4-0.1,0.7c0,0.4,0.1,0.7,0.2,0.9c0.1,0.2,0.4,0.4,0.9,0.7c1.4,0.8,2.2,1.4,2.6,1.9c0.4,0.5,0.5,1.3,0.5,2.4
			c0,0.8-0.1,1.4-0.3,1.8c-0.2,0.4-0.6,0.7-1.1,1c-0.6,0.3-1.2,0.4-2,0.4c-0.8,0-1.5-0.2-2.1-0.5c-0.6-0.3-1-0.7-1.1-1.2
			c-0.2-0.5-0.3-1.1-0.3-2v-0.8h2.9v1.4c0,0.4,0,0.7,0.1,0.8c0.1,0.1,0.2,0.2,0.4,0.2c0.2,0,0.4-0.1,0.5-0.2
			c0.1-0.2,0.1-0.4,0.1-0.7c0-0.7-0.1-1.1-0.3-1.3c-0.2-0.2-0.7-0.6-1.4-1c-0.8-0.5-1.3-0.9-1.5-1.1c-0.2-0.2-0.5-0.5-0.6-0.9
			c-0.2-0.4-0.2-0.9-0.2-1.5c0-0.9,0.1-1.5,0.3-1.9c0.2-0.4,0.6-0.7,1.1-1c0.5-0.2,1.1-0.3,1.9-0.3c0.8,0,1.5,0.1,2,0.4
			c0.6,0.3,0.9,0.6,1.1,0.9c0.2,0.4,0.3,1,0.3,1.9V107.4L92.4,107.4z M96.2,103.9h3.1c0.8,0,1.5,0.1,1.9,0.2c0.5,0.1,0.8,0.3,1,0.6
			c0.2,0.2,0.4,0.5,0.5,0.9c0.1,0.3,0.1,0.9,0.1,1.6v1c0,0.7-0.1,1.3-0.2,1.6c-0.2,0.3-0.4,0.6-0.9,0.8c-0.4,0.2-1,0.3-1.6,0.3h-0.8
			v4.6h-3.1V103.9L96.2,103.9z M99.3,105.8v2.9c0.1,0,0.2,0,0.2,0c0.3,0,0.5-0.1,0.6-0.2c0.1-0.1,0.2-0.4,0.2-0.8v-0.9
			c0-0.4-0.1-0.6-0.2-0.8C100,105.9,99.7,105.8,99.3,105.8L99.3,105.8z M110.7,103.9v7.7c0,0.9,0,1.5-0.1,1.8
			c-0.1,0.4-0.2,0.7-0.5,1.1c-0.3,0.4-0.7,0.7-1.1,0.8c-0.5,0.2-1,0.3-1.7,0.3c-0.7,0-1.3-0.1-1.9-0.3c-0.5-0.2-0.9-0.5-1.2-0.9
			c-0.3-0.4-0.4-0.7-0.5-1.2c0-0.4-0.1-1.3-0.1-2.6v-6.8h3.1v8.6c0,0.5,0,0.8,0.1,1c0.1,0.1,0.2,0.2,0.3,0.2c0.2,0,0.3-0.1,0.4-0.2
			c0.1-0.2,0.1-0.5,0.1-1.1v-8.5H110.7L110.7,103.9z M111.9,103.9h3.1c1,0,1.7,0.1,2.2,0.2c0.5,0.1,0.9,0.4,1.2,0.9
			c0.3,0.4,0.5,1.2,0.5,2.2c0,0.7-0.1,1.1-0.3,1.4c-0.2,0.3-0.6,0.5-1.3,0.6c0.7,0.2,1.2,0.4,1.4,0.8c0.3,0.4,0.4,0.9,0.4,1.7v1.1
			c0,0.8-0.1,1.3-0.3,1.7c-0.2,0.4-0.5,0.6-0.9,0.8c-0.4,0.1-1.2,0.2-2.5,0.2h-3.6V103.9L111.9,103.9z M115,105.8v2.6
			c0.1,0,0.2,0,0.3,0c0.3,0,0.5-0.1,0.6-0.2c0.1-0.1,0.1-0.6,0.1-1.2c0-0.4,0-0.6-0.1-0.8c-0.1-0.1-0.2-0.2-0.3-0.3
			C115.5,105.9,115.3,105.9,115,105.8L115,105.8z M115,110.2v3.2c0.4,0,0.7-0.1,0.8-0.2c0.1-0.1,0.2-0.4,0.2-0.9v-1.1
			c0-0.5-0.1-0.8-0.2-0.9C115.7,110.3,115.4,110.2,115,110.2L115,110.2z M123.2,103.9v9.2h1.9v2.3h-4.9v-11.5H123.2L123.2,103.9z
			 M128.9,103.9v11.5h-3.1v-11.5H128.9L128.9,103.9z M137.3,108.9h-3.1v-2c0-0.6,0-0.9-0.1-1.1c-0.1-0.1-0.2-0.2-0.4-0.2
			c-0.3,0-0.4,0.1-0.5,0.3c-0.1,0.2-0.1,0.6-0.1,1.1v5.3c0,0.6,0,0.9,0.1,1.1c0.1,0.2,0.2,0.3,0.5,0.3c0.2,0,0.4-0.1,0.4-0.3
			c0.1-0.2,0.1-0.6,0.1-1.2v-1.4h3.1v0.4c0,1.2-0.1,2-0.3,2.5c-0.2,0.5-0.6,0.9-1.1,1.3c-0.6,0.4-1.3,0.6-2.2,0.6
			c-0.9,0-1.6-0.2-2.2-0.5c-0.6-0.3-1-0.8-1.2-1.3c-0.2-0.6-0.3-1.4-0.3-2.5v-3.4c0-0.8,0-1.4,0.1-1.9c0.1-0.4,0.2-0.8,0.5-1.2
			c0.3-0.4,0.7-0.7,1.2-0.9c0.5-0.2,1.1-0.3,1.8-0.3c0.9,0,1.7,0.2,2.2,0.5c0.6,0.3,1,0.8,1.2,1.3c0.2,0.5,0.3,1.3,0.3,2.4V108.9
			L137.3,108.9z M145.5,110.6c0,1.2,0,2-0.1,2.5c-0.1,0.5-0.2,0.9-0.5,1.3c-0.3,0.4-0.7,0.7-1.2,0.9c-0.5,0.2-1.1,0.3-1.8,0.3
			c-0.6,0-1.2-0.1-1.7-0.3c-0.5-0.2-0.9-0.5-1.2-0.9c-0.3-0.4-0.5-0.8-0.5-1.3c-0.1-0.5-0.1-1.3-0.1-2.5v-2c0-1.2,0-2,0.1-2.5
			c0.1-0.5,0.2-0.9,0.5-1.3c0.3-0.4,0.7-0.7,1.2-0.9c0.5-0.2,1.1-0.3,1.8-0.3c0.6,0,1.2,0.1,1.7,0.3c0.5,0.2,0.9,0.5,1.2,0.9
			c0.3,0.4,0.5,0.8,0.5,1.3c0.1,0.5,0.1,1.3,0.1,2.5V110.6L145.5,110.6z M142.4,106.8c0-0.5,0-0.9-0.1-1c-0.1-0.1-0.2-0.2-0.4-0.2
			c-0.2,0-0.3,0.1-0.4,0.2c-0.1,0.1-0.1,0.5-0.1,1.1v5.4c0,0.7,0,1.1,0.1,1.2c0.1,0.2,0.2,0.2,0.4,0.2c0.2,0,0.3-0.1,0.4-0.3
			c0.1-0.2,0.1-0.6,0.1-1.3V106.8L142.4,106.8z M153.1,107.4h-2.9v-0.9c0-0.4,0-0.7-0.1-0.8c-0.1-0.1-0.2-0.2-0.4-0.2
			c-0.2,0-0.3,0.1-0.4,0.2c-0.1,0.1-0.1,0.4-0.1,0.7c0,0.4,0.1,0.7,0.2,0.9c0.1,0.2,0.4,0.4,0.9,0.7c1.4,0.8,2.2,1.4,2.6,1.9
			c0.4,0.5,0.5,1.3,0.5,2.4c0,0.8-0.1,1.4-0.3,1.8c-0.2,0.4-0.6,0.7-1.1,1c-0.6,0.3-1.2,0.4-2,0.4c-0.8,0-1.5-0.2-2.1-0.5
			c-0.6-0.3-1-0.7-1.1-1.2c-0.2-0.5-0.3-1.1-0.3-2v-0.8h2.9v1.4c0,0.4,0,0.7,0.1,0.8c0.1,0.1,0.2,0.2,0.4,0.2c0.2,0,0.4-0.1,0.5-0.2
			c0.1-0.2,0.1-0.4,0.1-0.7c0-0.7-0.1-1.1-0.3-1.3c-0.2-0.2-0.7-0.6-1.4-1c-0.8-0.5-1.3-0.9-1.5-1.1c-0.2-0.2-0.5-0.5-0.6-0.9
			c-0.2-0.4-0.2-0.9-0.2-1.5c0-0.9,0.1-1.5,0.3-1.9c0.2-0.4,0.6-0.7,1.1-1c0.5-0.2,1.1-0.3,1.9-0.3c0.8,0,1.5,0.1,2,0.4
			c0.6,0.3,0.9,0.6,1.1,0.9c0.2,0.4,0.3,1,0.3,1.9V107.4L153.1,107.4z M157,103.9h2.3c1.5,0,2.5,0.1,3,0.2c0.5,0.1,0.9,0.3,1.2,0.7
			c0.3,0.3,0.4,0.6,0.5,1c0.1,0.4,0.1,1.1,0.1,2.2v4c0,1,0,1.7-0.2,2.1c-0.1,0.3-0.3,0.6-0.5,0.8c-0.2,0.2-0.6,0.3-0.9,0.4
			c-0.4,0.1-0.9,0.1-1.6,0.1H157V103.9L157,103.9z M160.1,105.8v7.6c0.4,0,0.7-0.1,0.8-0.3c0.1-0.2,0.2-0.6,0.2-1.4v-4.5
			c0-0.5,0-0.9,0-1c0-0.1-0.1-0.3-0.2-0.3C160.6,105.9,160.4,105.8,160.1,105.8L160.1,105.8z M165.2,103.9h5.1v2.3h-2.1v2.2h1.9v2.2
			h-1.9v2.5h2.3v2.3h-5.3V103.9L165.2,103.9z M174.5,103.9v9.2h1.9v2.3h-4.9v-11.5H174.5L174.5,103.9z M24.1,119.5h2.3
			c1.5,0,2.5,0.1,3,0.2c0.5,0.1,0.9,0.3,1.2,0.7c0.3,0.3,0.4,0.6,0.5,1c0.1,0.4,0.1,1.1,0.1,2.2v4c0,1,0,1.7-0.2,2.1
			c-0.1,0.3-0.3,0.6-0.5,0.8c-0.2,0.2-0.6,0.3-0.9,0.4c-0.4,0.1-0.9,0.1-1.6,0.1h-3.9V119.5L24.1,119.5z M27.1,121.5v7.6
			c0.4,0,0.7-0.1,0.8-0.3c0.1-0.2,0.2-0.6,0.2-1.4v-4.5c0-0.5,0-0.9,0-1c0-0.1-0.1-0.3-0.2-0.3C27.7,121.5,27.5,121.5,27.1,121.5
			L27.1,121.5z M32.3,119.5h5.1v2.3h-2.1v2.2h1.9v2.2h-1.9v2.5h2.3v2.3h-5.3V119.5z"/>
		<path class="st1" d="M38.5,119.5h3.1c0.8,0,1.5,0.1,1.9,0.2c0.5,0.1,0.8,0.3,1,0.6c0.2,0.2,0.4,0.5,0.5,0.9
			c0.1,0.3,0.1,0.9,0.1,1.6v1c0,0.7-0.1,1.3-0.2,1.6c-0.2,0.3-0.4,0.6-0.9,0.8c-0.4,0.2-1,0.3-1.6,0.3h-0.8v4.6h-3.1V119.5
			L38.5,119.5z M41.6,121.5v2.9c0.1,0,0.2,0,0.2,0c0.3,0,0.5-0.1,0.6-0.2c0.1-0.1,0.2-0.4,0.2-0.8v-0.9c0-0.4-0.1-0.6-0.2-0.8
			C42.3,121.5,42,121.5,41.6,121.5L41.6,121.5z M51,119.5h-4.4L45,131h3.2l0.2-2.1h1.1l0.2,2.1h3.1L51,119.5L51,119.5z M49.4,126.9
			h-1.1c0.1-1,0.3-2.6,0.6-4.8C49,124,49.2,125.6,49.4,126.9L49.4,126.9z M53.3,119.5h2.2c1.5,0,2.4,0.1,2.9,0.2
			c0.5,0.1,0.9,0.4,1.3,0.8c0.3,0.4,0.5,1.2,0.5,2.1c0,0.9-0.1,1.5-0.3,1.8c-0.2,0.3-0.7,0.5-1.4,0.6c0.6,0.1,1,0.3,1.2,0.6
			c0.2,0.2,0.3,0.5,0.4,0.7c0.1,0.2,0.1,0.8,0.1,1.7v3h-2.9v-3.8c0-0.6-0.1-1-0.2-1.1c-0.1-0.1-0.4-0.2-0.8-0.2v5.2h-3.1V119.5
			L53.3,119.5z M56.3,121.5v2.6c0.3,0,0.6,0,0.7-0.1c0.1-0.1,0.2-0.4,0.2-0.9v-0.6c0-0.4-0.1-0.6-0.2-0.7
			C56.9,121.5,56.7,121.5,56.3,121.5L56.3,121.5z M67.5,119.5v2.3h-1.8v9.2h-3.1v-9.2h-1.8v-2.3H67.5L67.5,119.5z M72.9,119.5h-4.4
			L66.9,131h3.2l0.2-2.1h1.1l0.2,2.1h3.1L72.9,119.5L72.9,119.5z M71.3,126.9h-1.1c0.1-1,0.3-2.6,0.6-4.8
			C71,124,71.1,125.6,71.3,126.9L71.3,126.9z M84.7,119.5V131H82v-7.8l-1.1,7.8H79l-1.1-7.6v7.6h-2.7v-11.5h4
			c0.1,0.7,0.2,1.5,0.4,2.4l0.4,2.9l0.7-5.4H84.7L84.7,119.5z M85.9,119.5h5.1v2.3H89v2.2h1.9v2.2H89v2.5h2.3v2.3h-5.3V119.5
			L85.9,119.5z M99,119.5V131h-2.7l-1.6-5.2v5.2h-2.6v-11.5h2.6l1.7,5.2v-5.2H99L99,119.5z M106.4,119.5v2.3h-1.8v9.2h-3.1v-9.2
			h-1.8v-2.3H106.4L106.4,119.5z M114.1,126.2c0,1.2,0,2-0.1,2.5c-0.1,0.5-0.2,0.9-0.5,1.3c-0.3,0.4-0.7,0.7-1.2,0.9
			c-0.5,0.2-1.1,0.3-1.8,0.3c-0.6,0-1.2-0.1-1.7-0.3c-0.5-0.2-0.9-0.5-1.2-0.9c-0.3-0.4-0.5-0.8-0.5-1.3c-0.1-0.5-0.1-1.3-0.1-2.5
			v-2c0-1.2,0-2,0.1-2.5c0.1-0.5,0.2-0.9,0.5-1.3c0.3-0.4,0.7-0.7,1.2-0.9c0.5-0.2,1.1-0.3,1.8-0.3c0.6,0,1.2,0.1,1.7,0.3
			c0.5,0.2,0.9,0.5,1.2,0.9c0.3,0.4,0.5,0.8,0.5,1.3c0.1,0.5,0.1,1.3,0.1,2.5V126.2L114.1,126.2z M111.1,122.5c0-0.5,0-0.9-0.1-1
			c-0.1-0.1-0.2-0.2-0.4-0.2c-0.2,0-0.3,0.1-0.4,0.2c-0.1,0.1-0.1,0.5-0.1,1.1v5.4c0,0.7,0,1.1,0.1,1.2c0.1,0.2,0.2,0.2,0.4,0.2
			c0.2,0,0.3-0.1,0.4-0.3c0.1-0.2,0.1-0.6,0.1-1.3V122.5L111.1,122.5z M121.7,119.5v7.7c0,1.1,0,1.9,0,2.2c0,0.3-0.1,0.6-0.3,0.9
			c-0.2,0.3-0.5,0.4-0.8,0.5c-0.3,0.1-0.8,0.2-1.5,0.2h-1.5v-2c0.2,0,0.3,0,0.4,0c0.2,0,0.4-0.1,0.5-0.2c0.1-0.1,0.2-0.2,0.2-0.4
			c0-0.1,0-0.4,0-0.9v-8.1H121.7L121.7,119.5z M129.9,119.5v7.7c0,0.9,0,1.5-0.1,1.8c-0.1,0.4-0.2,0.7-0.5,1.1
			c-0.3,0.4-0.7,0.7-1.1,0.8c-0.5,0.2-1,0.3-1.7,0.3c-0.7,0-1.3-0.1-1.9-0.3c-0.5-0.2-0.9-0.5-1.2-0.9c-0.3-0.4-0.4-0.7-0.5-1.2
			c0-0.4-0.1-1.3-0.1-2.6v-6.8h3.1v8.6c0,0.5,0,0.8,0.1,1c0.1,0.1,0.2,0.2,0.3,0.2c0.2,0,0.3-0.1,0.4-0.2c0.1-0.2,0.1-0.5,0.1-1.1
			v-8.5H129.9L129.9,119.5z M131.1,119.5h2.3c1.5,0,2.5,0.1,3,0.2c0.5,0.1,0.9,0.3,1.2,0.7c0.3,0.3,0.4,0.6,0.5,1
			c0.1,0.4,0.1,1.1,0.1,2.2v4c0,1,0,1.7-0.2,2.1c-0.1,0.3-0.3,0.6-0.5,0.8c-0.2,0.2-0.6,0.3-0.9,0.4c-0.4,0.1-0.9,0.1-1.6,0.1h-3.9
			V119.5L131.1,119.5z M134.1,121.5v7.6c0.4,0,0.7-0.1,0.8-0.3c0.1-0.2,0.2-0.6,0.2-1.4v-4.5c0-0.5,0-0.9,0-1c0-0.1-0.1-0.3-0.2-0.3
			C134.7,121.5,134.5,121.5,134.1,121.5L134.1,121.5z M142.4,119.5V131h-3.1v-11.5H142.4L142.4,119.5z M150.8,124.5h-3.1v-2
			c0-0.6,0-0.9-0.1-1.1c-0.1-0.1-0.2-0.2-0.4-0.2c-0.3,0-0.4,0.1-0.5,0.3c-0.1,0.2-0.1,0.6-0.1,1.1v5.3c0,0.6,0,0.9,0.1,1.1
			c0.1,0.2,0.2,0.3,0.5,0.3c0.2,0,0.4-0.1,0.4-0.3c0.1-0.2,0.1-0.6,0.1-1.2v-1.4h3.1v0.4c0,1.2-0.1,2-0.3,2.5s-0.6,0.9-1.1,1.3
			c-0.6,0.4-1.3,0.6-2.2,0.6c-0.9,0-1.6-0.2-2.2-0.5c-0.6-0.3-1-0.8-1.2-1.3c-0.2-0.6-0.3-1.4-0.3-2.5v-3.4c0-0.8,0-1.4,0.1-1.9
			c0.1-0.4,0.2-0.8,0.5-1.2c0.3-0.4,0.7-0.7,1.2-0.9c0.5-0.2,1.1-0.3,1.8-0.3c0.9,0,1.7,0.2,2.2,0.5c0.6,0.3,1,0.8,1.2,1.3
			c0.2,0.5,0.3,1.3,0.3,2.4V124.5L150.8,124.5z M155,119.5V131h-3.1v-11.5H155L155,119.5z M161.5,119.5l1.8,11.5h-3.1l-0.2-2.1h-1.1
			l-0.2,2.1h-3.2l1.6-11.5H161.5L161.5,119.5z M159.9,126.9c-0.2-1.3-0.3-2.9-0.5-4.8c-0.3,2.2-0.5,3.8-0.6,4.8H159.9L159.9,126.9z
			 M166.9,119.5v9.2h1.9v2.3h-4.9v-11.5H166.9L166.9,119.5z M52.4,135.2h2.3c1.5,0,2.5,0.1,3,0.2c0.5,0.1,0.9,0.3,1.2,0.7
			c0.3,0.3,0.4,0.6,0.5,1c0.1,0.4,0.1,1.1,0.1,2.2v4c0,1,0,1.7-0.2,2.1c-0.1,0.3-0.3,0.6-0.5,0.8c-0.2,0.2-0.6,0.3-0.9,0.4
			c-0.4,0.1-0.9,0.1-1.6,0.1h-3.9V135.2L52.4,135.2z M55.4,137.1v7.6c0.4,0,0.7-0.1,0.8-0.3c0.1-0.2,0.2-0.6,0.2-1.4v-4.5
			c0-0.5,0-0.9,0-1c0-0.1-0.1-0.3-0.2-0.3C56,137.2,55.8,137.1,55.4,137.1L55.4,137.1z M60.6,135.2h5.1v2.3h-2.1v2.2h1.9v2.2h-1.9
			v2.5H66v2.3h-5.3V135.2L60.6,135.2z M76,138.6h-2.9v-0.9c0-0.4,0-0.7-0.1-0.8c-0.1-0.1-0.2-0.2-0.4-0.2c-0.2,0-0.3,0.1-0.4,0.2
			c-0.1,0.1-0.1,0.4-0.1,0.7c0,0.4,0.1,0.7,0.2,0.9c0.1,0.2,0.4,0.4,0.9,0.7c1.4,0.8,2.2,1.4,2.6,1.9c0.4,0.5,0.5,1.3,0.5,2.4
			c0,0.8-0.1,1.4-0.3,1.8c-0.2,0.4-0.6,0.7-1.1,1c-0.6,0.3-1.2,0.4-2,0.4c-0.8,0-1.5-0.2-2.1-0.5c-0.6-0.3-1-0.7-1.1-1.2
			c-0.2-0.5-0.3-1.1-0.3-2v-0.8h2.9v1.4c0,0.4,0,0.7,0.1,0.8c0.1,0.1,0.2,0.2,0.4,0.2c0.2,0,0.4-0.1,0.5-0.2
			c0.1-0.2,0.1-0.4,0.1-0.7c0-0.7-0.1-1.1-0.3-1.3c-0.2-0.2-0.7-0.6-1.4-1c-0.8-0.5-1.3-0.9-1.5-1.1c-0.2-0.2-0.5-0.5-0.6-0.9
			c-0.2-0.4-0.2-0.9-0.2-1.5c0-0.9,0.1-1.5,0.3-1.9c0.2-0.4,0.6-0.7,1.1-1c0.5-0.2,1.1-0.3,1.9-0.3c0.8,0,1.5,0.1,2,0.4
			c0.6,0.3,0.9,0.6,1.1,0.9c0.2,0.4,0.3,1,0.3,1.9V138.6L76,138.6z M82.5,135.2l1.8,11.5h-3.1l-0.2-2.1h-1.1l-0.2,2.1h-3.2l1.6-11.5
			H82.5L82.5,135.2z M80.9,142.5c-0.2-1.3-0.3-2.9-0.5-4.8c-0.3,2.2-0.5,3.8-0.6,4.8H80.9L80.9,142.5z M91.7,135.2v11.5H89l-1.6-5.2
			v5.2h-2.6v-11.5h2.6l1.7,5.2v-5.2H91.7L91.7,135.2z M105,135.2v11.5h-2.7v-7.8l-1.1,7.8h-1.9l-1.1-7.6v7.6h-2.7v-11.5h4
			c0.1,0.7,0.2,1.5,0.4,2.4l0.4,2.9l0.7-5.4H105L105,135.2z M111.6,135.2l1.8,11.5h-3.1l-0.2-2.1h-1.1l-0.2,2.1h-3.2l1.6-11.5H111.6
			L111.6,135.2z M109.9,142.5c-0.2-1.3-0.3-2.9-0.5-4.8c-0.3,2.2-0.5,3.8-0.6,4.8H109.9L109.9,142.5z M113.8,135.2h2.2
			c1.5,0,2.4,0.1,2.9,0.2c0.5,0.1,0.9,0.4,1.3,0.8c0.3,0.4,0.5,1.2,0.5,2.1c0,0.9-0.1,1.5-0.3,1.8c-0.2,0.3-0.7,0.5-1.4,0.6
			c0.6,0.1,1,0.3,1.2,0.6c0.2,0.2,0.3,0.5,0.4,0.7c0.1,0.2,0.1,0.8,0.1,1.7v3h-2.9v-3.8c0-0.6-0.1-1-0.2-1.1
			c-0.1-0.1-0.4-0.2-0.8-0.2v5.2h-3.1V135.2L113.8,135.2z M116.9,137.1v2.6c0.3,0,0.6,0,0.7-0.1c0.1-0.1,0.2-0.4,0.2-0.9V138
			c0-0.4-0.1-0.6-0.2-0.7C117.5,137.2,117.3,137.1,116.9,137.1L116.9,137.1z M128.1,135.2v2.3h-1.8v9.2h-3.1v-9.2h-1.8v-2.3H128.1
			L128.1,135.2z M131.9,135.2v11.5h-3.1v-11.5H131.9L131.9,135.2z M140,135.2v11.5h-2.7l-1.6-5.2v5.2h-2.6v-11.5h2.6l1.7,5.2v-5.2
			H140z"/>
	</g>
</g>
</svg>
